<svg width="170" height="170" xmlns="http://www.w3.org/2000/svg">
 <!-- Created with Method Draw - http://github.com/duopixel/Method-Draw/ -->
 <g>
  <title>background</title>
  <rect fill="none" id="canvas_background" height="172" width="172" y="-1" x="-1"/>
 </g>
 <g>
  <title>Layer 1</title>
  <path id="svg_2" d="m117.06,85.083c0,-17.639 -14.331,-31.956 -31.97,-31.956c-17.652,0 -31.941,14.316 -31.941,31.956s14.289,31.97 31.941,31.97c17.639,0 31.97,-14.331 31.97,-31.97m-31.97,-85.083c-46.958,0 -85.076,38.112 -85.09,85.063l25.34,0c0.006,-32.966 26.762,-59.743 59.75,-59.743c33,0 59.777,26.783 59.777,59.764c0,32.985 -26.762,59.756 -59.75,59.762l0,25.34c46.978,-0.013 85.063,-38.139 85.063,-85.103s-38.099,-85.083 -85.09,-85.083" fill="#134094"/>
 </g>
</svg>